<?xml version="1.0" encoding="UTF-8"?>
<svg id="a" data-name="Layer 1" xmlns="http://www.w3.org/2000/svg" viewBox="0 0 600 337.5">
  <defs>
    <style>
      .b {
        fill-rule: evenodd;
      }
    </style>
  </defs>
  <path class="b" d="M356.262,178.08c-.132-.996-.285-1.861-.457-2.593-.169-.715-.355-1.289-.556-1.72-.75-1.449-1.757-2.535-3.02-3.256-1.267-.724-2.803-1.087-4.604-1.087h-18.039c-1.803,0-3.332.356-4.586,1.067-1.246.706-2.232,1.771-2.955,3.193l-.003.005c-.256.487-.475,1.095-.658,1.825-.184.736-.33,1.589-.435,2.558v2.985c.132.993.285,1.856.457,2.586.169.715.354,1.29.555,1.721h.001c.751,1.449,1.757,2.535,3.018,3.256h.001c1.267.724,2.803,1.087,4.604,1.087h18.039c1.803,0,3.332-.356,4.586-1.067,1.245-.706,2.231-1.772,2.956-3.194l.003-.005c.256-.486.476-1.095.658-1.824.184-.737.33-1.593.435-2.564v-2.973ZM360.028,181.112c-.163,1.365-.37,2.559-.618,3.579-.251,1.029-.545,1.883-.883,2.559v.003c-1.065,2.072-2.511,3.629-4.336,4.668-1.82,1.036-4.009,1.554-6.566,1.554h-18.039c-2.532,0-4.702-.519-6.507-1.554-1.811-1.039-3.249-2.596-4.314-4.668l-.002-.003c-.31-.619-.597-1.444-.861-2.473-.262-1.021-.503-2.239-.72-3.653l-.005-.029v-3.052l.003-.026c.163-1.365.37-2.558.618-3.578.251-1.033.546-1.887.882-2.56l.003-.003c1.064-2.072,2.51-3.628,4.336-4.668,1.82-1.036,4.009-1.554,6.566-1.554h18.039c1.072,0,2.074.084,3.002.252.931.168,1.783.421,2.553.757.771.336,1.471.738,2.096,1.201.352.261.68.542.986.844v-2.656c-.132-1.023-.285-1.908-.457-2.652-.169-.726-.355-1.307-.556-1.739-.75-1.449-1.757-2.535-3.02-3.256h0c-1.268-.725-2.803-1.087-4.605-1.087h-18.039c-.997,0-1.914.111-2.747.332-.825.219-1.574.548-2.244.986h0c-.508.357-.976.786-1.4,1.289-.427.505-.812,1.085-1.15,1.737l-.365.701-.321-.724c-.114-.256-.231-.563-.349-.919-.118-.353-.239-.756-.361-1.206-.249-.913-.401-1.505-.454-1.773l-.036-.176.115-.14c.505-.617,1.072-1.166,1.699-1.646.626-.478,1.311-.886,2.055-1.223.744-.336,1.583-.59,2.517-.758.928-.167,1.943-.251,3.043-.251h18.039c2.532,0,4.701.518,6.507,1.554,1.811,1.039,3.249,2.595,4.314,4.668l.004.009c.613,1.282,1.139,3.35,1.578,6.201l.005.03v15.078s-.003.025-.003.025ZM275.366,169.025c.131.996.284,1.86.457,2.592.169.714.355,1.289.556,1.72h0c.75,1.449,1.757,2.534,3.02,3.256h0c1.267.725,2.803,1.087,4.605,1.087h18.038c1.803,0,3.332-.356,4.585-1.067,1.246-.706,2.232-1.772,2.956-3.193l.003-.005c.256-.486.475-1.095.658-1.825.184-.737.33-1.592.435-2.563v-2.976c-.131-1.022-.284-1.907-.457-2.651-.169-.727-.355-1.307-.556-1.74-.75-1.449-1.757-2.535-3.02-3.256h0c-1.268-.725-2.803-1.087-4.605-1.087h-18.038c-1.776,0-3.291.362-4.544,1.085-1.248.72-2.248,1.806-2.999,3.258v.003c-.257.487-.477,1.095-.659,1.825-.184.737-.33,1.592-.435,2.564v2.973ZM275.366,181.05c.131.996.284,1.86.457,2.592.169.714.355,1.289.556,1.721h0c.751,1.449,1.757,2.535,3.018,3.256h.002c1.267.724,2.803,1.087,4.604,1.087h18.038c1.026,0,1.963-.111,2.809-.332.838-.219,1.593-.549,2.263-.987h0c.483-.331.937-.748,1.36-1.247.43-.507.828-1.102,1.195-1.783l.364-.677.319.701c.141.31.271.648.391,1.014.119.365.227.755.323,1.168.091.39.17.747.235,1.067.063.309.109.56.136.753l.024.171-.112.131c-.507.592-1.078,1.12-1.71,1.583-.628.46-1.323.86-2.083,1.198-.759.337-1.601.59-2.524.758-.921.167-1.919.251-2.992.251h-18.038c-2.532,0-4.702-.519-6.507-1.554-1.811-1.039-3.249-2.595-4.313-4.668v-.003c-.312-.619-.599-1.444-.863-2.473-.262-1.021-.503-2.239-.72-3.653l-.005-.029v-15.078l.003-.026c.164-1.365.37-2.559.619-3.579.251-1.033.545-1.887.881-2.559h0c1.035-2.098,2.468-3.676,4.296-4.73,1.82-1.05,4.025-1.576,6.609-1.576h18.038c2.532,0,4.701.518,6.507,1.554,1.811,1.039,3.249,2.595,4.314,4.668l.004.009c.31.649.598,1.493.86,2.53.26,1.027.5,2.251.718,3.671l.005.03v3.053l-.003.025c-.164,1.365-.37,2.559-.618,3.579-.25,1.029-.545,1.883-.883,2.559v.003c-1.065,2.072-2.511,3.628-4.336,4.668-1.82,1.036-4.009,1.554-6.567,1.554h-18.038c-1.101,0-2.11-.084-3.024-.251-.919-.168-1.739-.422-2.459-.761h-.001c-.716-.337-1.392-.744-2.027-1.217-.389-.291-.764-.608-1.126-.953v2.783ZM202.855,166.045c-.131-1.02-.284-1.903-.457-2.645-.169-.727-.354-1.307-.555-1.74h0c-.751-1.45-1.757-2.535-3.018-3.256h-.001c-1.268-.724-2.803-1.087-4.604-1.087h-18.038c-1.775,0-3.29.362-4.543,1.084h0c-1.249.722-2.25,1.808-3.001,3.258l-.002.003c-.256.487-.475,1.096-.658,1.825-.184.737-.33,1.592-.435,2.563v14.998c.131.996.284,1.859.457,2.591.169.715.355,1.29.556,1.722h0c.751,1.449,1.757,2.535,3.018,3.256h.001c1.268.724,2.803,1.087,4.604,1.087h18.038c1.803,0,3.332-.356,4.586-1.067,1.245-.706,2.231-1.772,2.956-3.194l.003-.005c.256-.486.476-1.095.658-1.824.184-.736.33-1.588.435-2.558v-15.013ZM206.621,181.112c-.164,1.365-.37,2.559-.618,3.579-.25,1.029-.545,1.883-.883,2.559v.003c-1.065,2.072-2.511,3.629-4.336,4.668-1.82,1.036-4.009,1.554-6.567,1.554h-18.038c-2.532,0-4.701-.518-6.507-1.554-1.811-1.039-3.249-2.595-4.314-4.668v-.003c-.616-1.229-1.143-3.272-1.583-6.126l-.005-.029v-15.078l.003-.026c.163-1.364.37-2.558.618-3.578.251-1.034.545-1.888.881-2.56h0c1.035-2.098,2.468-3.676,4.296-4.73,1.821-1.051,4.024-1.576,6.608-1.576h18.038c2.532,0,4.702.519,6.507,1.554,1.811,1.039,3.249,2.595,4.314,4.668l.004.009c.31.648.597,1.492.86,2.53.26,1.027.5,2.252.718,3.672l.005.03v15.078l-.003.025ZM155.89,166.045c-.131-1.02-.285-1.902-.457-2.645-.169-.727-.354-1.307-.556-1.74h0c-.75-1.449-1.757-2.534-3.019-3.256h0c-1.267-.725-2.803-1.087-4.605-1.087h-18.038c-1.776,0-3.291.362-4.544,1.085-1.248.72-2.248,1.806-2.999,3.258v.003c-.257.487-.477,1.095-.659,1.825-.185.737-.33,1.592-.435,2.564v14.998c.131.996.284,1.86.457,2.592.169.714.355,1.289.556,1.721h0c.751,1.449,1.757,2.535,3.018,3.256h.002c1.267.724,2.803,1.087,4.604,1.087h18.038c1.803,0,3.332-.356,4.586-1.067,1.245-.706,2.231-1.772,2.955-3.194l.003-.005c.256-.486.475-1.095.658-1.825.184-.736.33-1.588.435-2.557v-15.013ZM159.657,193.138c-.164,1.365-.37,2.559-.618,3.579-.251,1.033-.545,1.887-.881,2.559l-.003.003c-1.064,2.072-2.51,3.629-4.335,4.668-1.819,1.036-4.009,1.554-6.566,1.554h-18.038c-2.115-.001-3.941-.352-5.479-1.051-.767-.348-1.47-.75-2.106-1.205-.64-.457-1.213-.967-1.718-1.528l-.123-.136.03-.181c.082-.498.158-.917.225-1.258.069-.352.132-.636.189-.848v-.002c.057-.215.151-.484.279-.805.121-.303.281-.666.476-1.086l.34-.728.347.725c.309.645.678,1.213,1.103,1.703.421.485.9.894,1.435,1.225l.012.008c.696.464,1.46.813,2.288,1.046.831.233,1.732.351,2.7.351h18.038c1.803,0,3.332-.356,4.585-1.066,1.246-.706,2.232-1.772,2.956-3.193l.003-.005c.256-.486.475-1.095.658-1.825.184-.736.33-1.588.435-2.557v-2.732c-.315.318-.648.613-.999.888-.612.479-1.277.887-1.991,1.223h-.001c-1.434.674-3.316,1.012-5.645,1.012h-18.038c-2.534-.001-4.703-.519-6.507-1.554-1.811-1.039-3.249-2.595-4.313-4.668v-.003c-.312-.619-.599-1.444-.863-2.473-.262-1.021-.503-2.239-.72-3.653l-.005-.029v-15.078l.003-.026c.164-1.365.37-2.559.619-3.579.251-1.033.545-1.887.881-2.559h0c1.035-2.098,2.468-3.676,4.296-4.73,1.82-1.05,4.024-1.576,6.608-1.576h18.038c2.531,0,4.701.518,6.506,1.554,1.811,1.039,3.249,2.596,4.314,4.668l.004.009c.31.649.598,1.493.86,2.53.26,1.027.5,2.251.718,3.671l.005.03v27.103l-.003.025ZM73.613,169.025c.132.996.284,1.861.457,2.592.168.714.355,1.289.556,1.72h0c.75,1.449,1.757,2.534,3.019,3.256,1.267.724,2.803,1.087,4.604,1.087h18.038c1.803,0,3.332-.356,4.585-1.067,1.246-.706,2.232-1.772,2.956-3.193l.003-.005c.256-.487.476-1.095.658-1.824.184-.736.329-1.589.435-2.558v-2.988c-.131-1.02-.285-1.903-.457-2.645-.169-.727-.354-1.307-.555-1.74h0c-.751-1.449-1.758-2.534-3.02-3.256h0c-1.267-.725-2.803-1.087-4.605-1.087h-18.038c-1.776,0-3.291.362-4.544,1.085-1.248.72-2.248,1.806-2.999,3.258v.003c-.258.487-.478,1.096-.659,1.824-.184.737-.33,1.593-.435,2.564v2.973ZM73.613,181.05c.131.996.284,1.86.457,2.592.169.716.356,1.292.559,1.725.75,1.446,1.756,2.53,3.017,3.251,1.267.724,2.803,1.087,4.604,1.087h18.038c1.026,0,1.963-.111,2.809-.332.837-.219,1.593-.549,2.263-.987h0c.483-.331.937-.748,1.36-1.247.43-.507.828-1.102,1.195-1.783l.365-.677.318.701c.14.309.271.648.39,1.013.119.365.228.755.324,1.169.091.39.17.747.235,1.067.063.309.109.561.136.753l.025.171-.112.131c-.507.592-1.078,1.12-1.71,1.583-.628.46-1.323.86-2.083,1.198-.759.337-1.601.59-2.524.758-.921.167-1.919.251-2.992.251h-18.038c-2.532,0-4.701-.518-6.507-1.554-1.811-1.039-3.249-2.596-4.313-4.668l-.002-.003c-.614-1.229-1.142-3.272-1.581-6.126l-.005-.029v-15.078l.003-.026c.163-1.364.37-2.558.618-3.578.251-1.034.545-1.888.881-2.56h0c1.035-2.098,2.468-3.676,4.296-4.73,1.821-1.051,4.024-1.576,6.608-1.576h18.038c2.532,0,4.701.519,6.507,1.554,1.811,1.039,3.249,2.595,4.314,4.668l.004.009c.31.648.597,1.492.86,2.53.26,1.027.5,2.252.718,3.672l.005.03v3.053l-.003.025c-.164,1.365-.37,2.559-.618,3.579-.25,1.029-.545,1.883-.883,2.559v.003c-1.065,2.072-2.511,3.628-4.336,4.668-1.82,1.036-4.009,1.554-6.567,1.554h-18.038c-1.101,0-2.11-.084-3.024-.251-.919-.168-1.739-.422-2.459-.761h-.002c-.716-.337-1.392-.743-2.026-1.217-.39-.291-.765-.609-1.127-.954v2.784ZM406.614,193.475h-3.388v-27.424c-.131-1.023-.284-1.908-.457-2.652-.169-.727-.354-1.307-.556-1.74-.751-1.449-1.758-2.535-3.02-3.256h0c-1.268-.725-2.803-1.087-4.605-1.087h-7.094v36.158h-3.77v-36.158h-7.175c-1.775,0-3.29.362-4.543,1.084h0c-1.249.722-2.25,1.808-3.001,3.258v.003c-.257.487-.477,1.095-.659,1.824-.184.736-.329,1.59-.435,2.558v27.429h-3.77v-27.458l.003-.026c.163-1.364.37-2.558.618-3.578.251-1.034.545-1.888.881-2.56h0c1.035-2.098,2.468-3.676,4.296-4.73,1.82-1.05,4.024-1.576,6.608-1.576h18.038c2.531,0,4.701.518,6.506,1.554,1.811,1.039,3.249,2.595,4.314,4.668l.004.009c.31.649.598,1.492.86,2.53.26,1.027.5,2.252.718,3.672l.005.03v27.466h-.382ZM268.773,189.685c-.507.592-1.078,1.12-1.709,1.583-.628.46-1.323.86-2.083,1.198-1.514.673-3.353,1.009-5.516,1.009h-18.038c-2.532,0-4.701-.518-6.506-1.554-1.811-1.039-3.249-2.595-4.314-4.668l-.002-.003c-.614-1.229-1.142-3.272-1.581-6.126l-.005-.029v-39.573h3.77v15.217c.328-.305.678-.593,1.05-.864.633-.459,1.335-.871,2.103-1.234.774-.365,1.621-.64,2.538-.822.912-.181,1.895-.272,2.947-.272h9.401v3.77h-9.401c-1.775,0-3.29.362-4.543,1.084h0c-1.249.722-2.25,1.808-3.001,3.258v.003c-.257.487-.477,1.096-.659,1.825-.184.737-.33,1.592-.435,2.563v14.998c.131.996.284,1.859.457,2.591.169.715.355,1.29.556,1.722h0c.751,1.449,1.758,2.535,3.019,3.256h.001c1.267.724,2.803,1.087,4.604,1.087h18.038c1.026,0,1.963-.111,2.809-.332.837-.219,1.593-.549,2.263-.987h0c.483-.331.937-.748,1.36-1.247.43-.507.828-1.102,1.195-1.783l.365-.677.318.701c.14.309.271.648.39,1.013.119.365.228.755.324,1.169.091.39.17.746.235,1.065.063.31.109.562.137.755l.025.171-.112.131ZM213.897,171.224h7.955v3.872h-8.337v-3.872h.382ZM436.563,234.535c.554-7.614,2.328-16.368,7.582-24.367l.788-1.125c28.533-45.17,71.958-76.079,124.667-60.912l.175.152.004.004.002.002h.001s.004.005.004.005l.026.022h.001s.004.004.004.004l.027.023c-36.097-5.394-29.297,66.527-122.057,62.33-6.601,4.463-1.132,18.002-5.836,23.664-2.428,3.729-5.653,3.263-5.387.199M569.599,148.131c-52.219-15.026-96.498,13.017-125.062,57.462-6.005-61.68,68.791-107.924,125.062-57.462M480.174,131.769c-5.604,3.066-10.849,6.824-15.599,11.2-8.766,8.076-15.628,18.067-19.871,29.212-2.431-39.597,3.299-73.035,26.338-93.958.23-.127.451-.257.684-.383-15.847,18.736,5.231,35.698,8.448,53.93M471.042,78.222c-23.009,20.897-31.341,54.674-27.549,97.391-1.784,5.478-2.91,11.101-3.384,16.785-22.764-23.743-30.294-80.594,31.273-114.367l-.34.191Z"/>
</svg>