<?xml version="1.0" encoding="UTF-8"?>
<svg id="a" data-name="Layer 1" xmlns="http://www.w3.org/2000/svg" viewBox="0 0 600 337.5">
  <defs>
    <style>
      .b {
        fill: #231f20;
      }
    </style>
  </defs>
  <path class="b" d="M327.286,121.827c-3.249-.676-6.283-2.306-8.257-4.016.431-2.335.868-4.669,1.309-7.003,1.066.152,2.13.315,3.192.49,0,1.857-.01,3.713-.032,5.568,1.191,1.027,2.359,1.701,4.17,2.071,4.126.85,7.277-.436,8.147-3.712.758-2.92-.81-4.589-4.343-6.698-.552-.383-1.109-.763-1.669-1.139-4.549-2.864-7.836-6.168-7.105-11.461.729-5.574,6.67-8.647,13.943-7.035,3.64.808,6.361,2.688,8.198,4.805-.707,2.06-1.411,4.123-2.11,6.186-1.135-.315-2.272-.616-3.412-.905.075-1.791.138-3.584.188-5.378-1.102-.99-2.308-1.61-3.863-1.952-4.023-.884-7.447.412-8.005,3.743-.474,2.754,1.249,4.767,4.603,6.808.603.371,1.203.746,1.798,1.125,5.898,3.736,7.559,7.488,6.247,11.958-1.708,5.633-6.999,7.784-13.001,6.546ZM288.385,88.362c-.054-.768-.108-1.537-.161-2.306,5.009-.351,10.03-.478,15.047-.38,9.481.23,13.839,5.056,13.183,10.671-.621,5.433-4.763,9.483-14.914,9.293-.821-.009-1.642-.01-2.462-.005.022,3.336.057,6.485.145,9.758,1.35.18,2.693.38,4.032.599-.018.772-.036,1.542-.055,2.314-4.233-.1-8.469-.002-12.695.295-.054-.769-.108-1.539-.162-2.309,1.356-.284,2.719-.548,4.088-.791-.08-4.028-.814-22.755-1.08-26.844-1.651-.123-3.307-.221-4.967-.294ZM299.059,102.967c1.178-.008,2.356-.001,3.534.019,5.55.119,7.983-2.664,8.316-7.12.339-4.473-2.342-7.432-8.815-7.541-.999-.013-1.998-.016-2.997-.01-.083,4.094-.038,14.652-.038,14.652ZM258.645,93.774c1.124,3.941,5.79,22.092,6.717,26.014-1.297.529-2.584,1.077-3.862,1.644.216.741.431,1.481.646,2.222,7.549-2.193,15.242-3.716,22.99-4.57-.249-3.036-.491-6.073-.729-9.11-.979.106-1.957.222-2.935.348-.092,2.106-.169,4.211-.231,6.315-3.744.512-7.471,1.177-11.174,1.996-.964-3.97-1.881-7.99-2.803-12.141,2.327-.516,4.662-.977,7.004-1.381.473,1.463.939,2.928,1.399,4.395.783-.132,1.568-.258,2.353-.377-.596-3.93-1.193-7.858-1.789-11.788-.849.129-1.697.265-2.545.408.017,1.581.041,3.162.073,4.742-2.366.409-4.724.876-7.074,1.397-.823-3.709-1.658-7.582-2.412-11.433,4.052-.897,8.129-1.639,12.223-2.227.703,1.996,1.391,3.996,2.064,5.999,1.074-.146,2.149-.281,3.225-.405-.467-3.01-.942-6.02-1.423-9.028-9.205,1.082-18.342,2.926-27.317,5.533.215.74.429,1.48.644,2.219,1.652-.283,3.305-.54,4.956-.772ZM500,233.75c0,20.714-14.286,35-35,35-14.643,0-26.786-8.929-29.643-25.357-2.857-16.786-7.143-30-13.571-38.571-5.357,2.143-10.714,4.643-16.429,7.143-30,13.571-64.285,28.571-105.357,28.571s-75.357-15-105.357-28.571c-5.715-2.5-11.072-5-16.429-7.143-6.429,8.571-10.714,21.786-13.571,38.571-2.857,16.429-15,25.357-29.643,25.357-20.714,0-35-14.286-35-35,0-16.786,7.857-30.714,23.928-41.786,8.988-6.558,16.48-16.415,23.617-26.099-5.722-3.372-8.974-8.732-8.974-15.686,0-7.143,2.5-12.5,5.357-19.286,2.857-6.429,6.429-13.929,7.5-23.928-5-5.001-7.857-11.786-7.857-18.572,0-11.429,8.214-19.643,20-19.643,9.285,0,16.428,4.643,18.928,11.429.714,1.786,1.071,3.571,1.071,5.357,0,9.149.991,15.115,4.14,23.629,8.631-2.507,17.517-7.509,27.289-13.272,20.714-12.143,46.428-27.143,85-27.143s64.285,15,85,27.143c9.771,5.763,18.658,10.765,27.289,13.272,3.149-8.515,4.14-14.48,4.14-23.629,0-1.786.357-3.571,1.071-5.357,2.501-6.786,9.643-11.429,18.929-11.429,11.786,0,20,8.214,20,19.643,0,6.786-2.857,13.571-7.857,18.572,1.071,10,4.643,17.499,7.5,23.928,2.857,6.786,5.357,12.143,5.357,19.286,0,6.954-3.252,12.314-8.974,15.686,7.137,9.684,14.629,19.541,23.617,26.099,16.071,11.072,23.929,25,23.929,41.786ZM496.429,233.393c0-14.643-8.572-28.928-20.715-36.428-8.214-5.001-18.214-4.286-26.786-1.786,1.429,9.643,6.786,17.143,12.5,20,8.214,4.286,12.143,9.643,12.143,16.786,0,7.857-7.143,14.286-17.143,14.643-4.632-6.617-8.02-13.616-11.051-22.266-3.697,3.856-6.091,9.29-6.091,14.409,0,15.714,10.357,26.428,25.714,26.428,18.571,0,31.429-12.857,31.429-31.786ZM436.428,233.393c1.473-6.627,5.183-11.85,10.693-14.967l.021-.033c.002.006.004.011.006.018,2.501-1.41,5.337-2.43,8.565-2.875-6.786-6.071-8.571-11.786-10.714-19.286-6.429,1.786-12.857,4.286-20,7.143,4.999,7.143,8.929,17.143,11.429,30ZM403.928,208.75c24.643-11.071,49.643-21.786,64.643-18.572-13.214-10.714-19.286-23.571-28.928-35.357-22.5-27.5-51.072-16.071-82.143-4.286-18.214,7.143-37.143,14.286-57.5,14.286s-39.286-7.143-57.5-14.286c-31.071-11.786-59.643-23.214-82.143,4.286-9.643,11.786-15.714,24.643-28.928,35.357,15-3.214,40,7.501,64.643,18.572,30,13.214,63.572,28.214,103.929,28.214s73.928-15,103.928-28.214ZM175,203.393c-7.143-2.857-13.571-5.357-20-7.143-2.143,7.5-3.929,13.214-10.714,19.286,3.229.445,6.064,1.465,8.566,2.875.002-.006.004-.012.006-.018l.021.033c5.51,3.117,9.22,8.34,10.693,14.967,2.5-12.857,6.429-22.857,11.429-30ZM160.714,238.75c0-5.118-2.394-10.552-6.091-14.409-3.032,8.649-6.419,15.649-11.051,22.266-10-.357-17.143-6.786-17.143-14.643,0-7.143,3.929-12.5,12.143-16.786,5.714-2.857,11.071-10.357,12.5-20-8.571-2.5-18.571-3.215-26.786,1.786-12.143,7.5-20.714,21.786-20.714,36.428,0,18.928,12.857,31.786,31.428,31.786,15.357,0,25.714-10.714,25.714-26.428ZM129.999,231.25c0,6.071,5.001,10.714,11.786,11.429,4.374-5.936,7.356-12.772,9.953-20.827-2.445-1.708-5.234-2.745-8.168-2.745-7.857,0-13.572,5-13.572,12.143ZM163.572,72.321c-9.643,0-16.429,6.786-16.429,16.071,0,6.071,2.5,11.786,6.786,15.715,3.931,3.194,8.731,5.178,14.469,6.123-.862-6.829-1.4-12.035-4.043-18.26-.3-.567-.571-1.158-.782-1.791l3.571-1.429c.714,2.858,2.857,5,6.071,5,3.929,0,6.786-3.214,6.786-7.857,0-7.857-6.786-13.571-16.428-13.571ZM172.857,97.321c-1.305,0-2.53-.292-3.662-.781,1.427,4.901,1.671,7.85,2.43,14.1,1.655.153,3.358.253,5.161.253,2.668,0,5.339-.377,8.026-.975-2.341-5.676-3.484-10.464-3.895-16.346-1.884,2.323-4.658,3.749-8.059,3.749ZM147.143,132.322c-2.5,6.429-5,11.429-5,17.857,0,6.608,3.298,10.521,7.502,12.84,2.634-3.579,5.234-7.086,7.855-10.34,21.764-26.494,48.263-19.558,75.316-9.457,17.956-7.312,39.046-13.4,67.184-13.4s49.229,6.089,67.184,13.4c27.053-10.101,53.553-17.037,75.315,9.457,2.622,3.254,5.222,6.762,7.856,10.34,4.204-2.32,7.502-6.232,7.502-12.84,0-6.429-2.5-11.429-5-17.857-2.857-6.429-5.714-13.571-7.143-23.571-6.071,3.928-13.214,5.714-22.5,5.714-12.857,0-25.714-7.143-40-15.357-20.357-11.786-45.714-26.786-83.214-26.786s-62.857,15-83.214,26.786c-14.286,8.214-27.143,15.357-40,15.357-9.286,0-16.429-1.786-22.5-5.714-1.429,10-4.286,17.143-7.143,23.571ZM420,85.893c0,4.643,2.857,7.857,6.785,7.857,3.215,0,5.357-2.142,6.072-5l3.571,1.429c-.211.634-.483,1.225-.783,1.791-2.643,6.225-3.181,11.431-4.043,18.26,5.738-.945,10.538-2.928,14.469-6.123,4.286-3.929,6.786-9.643,6.786-15.715,0-9.286-6.786-16.071-16.429-16.071s-16.429,5.714-16.429,13.571ZM419.083,93.572c-.412,5.881-1.554,10.67-3.895,16.346,2.687.598,5.358.975,8.025.975,1.803,0,3.506-.1,5.161-.253.759-6.25,1.003-9.2,2.43-14.1-1.132.489-2.358.781-3.662.781-3.401,0-6.175-1.426-8.059-3.749ZM300,133.392c-25.765,0-45.402,5.132-62.302,11.673,1.957.749,3.915,1.504,5.874,2.256,18.214,6.786,36.786,13.929,56.428,13.929s38.214-7.143,56.428-13.929c1.959-.752,3.917-1.507,5.874-2.256-16.9-6.541-36.538-11.673-62.302-11.673ZM448.26,221.852c2.597,8.055,5.579,14.89,9.953,20.827,6.786-.714,11.786-5.357,11.786-11.429,0-7.143-5.714-12.143-13.571-12.143-2.933,0-5.722,1.037-8.168,2.745ZM385.203,196.481c-6.872-4.9-13.384-10.099-19.516-15.56,1.763-4.885,3.314-9.783,4.654-14.68,1.555-.927,3.095-1.875,4.62-2.845-.323-.722-.647-1.444-.969-2.165-3.808,1.704-7.661,3.271-11.553,4.699.272.742.545,1.485.818,2.228,1.34-.187,2.683-.39,4.027-.609-2.168,7.639-4.848,15.277-8.046,22.859,0-.001-4.09-13.523-5.472-18.37,1.61-.72,3.207-1.463,4.793-2.227-.252-.75-.504-1.499-.757-2.249-4.773,1.607-9.597,3.008-14.461,4.205.189.768.379,1.535.568,2.304,1.685-.196,3.372-.417,5.059-.662,1.452,4.913,7.735,27.614,8.967,32.512-1.873.736-3.758,1.447-5.653,2.131.189.768.378,1.535.567,2.304,5.93-1.46,11.814-3.168,17.633-5.126-.252-.75-.504-1.5-.757-2.249-2.048.458-4.095.884-6.145,1.279-1.175-3.568-2.266-7.055-3.202-10.116,1.281-2.893,2.487-5.796,3.617-8.705,4.935,4.608,10.119,9.05,15.548,13.306-1.621.858-3.254,1.697-4.898,2.515.27.744.54,1.487.81,2.23,5.266-1.913,10.476-4.034,15.617-6.361-.326-.721-.652-1.441-.978-2.162-1.627.526-3.257,1.031-4.889,1.516ZM428.453,172.648c.465.64.93,1.279,1.395,1.919-4.972,3.613-10.059,6.994-15.242,10.142-.41-.676-.82-1.352-1.23-2.028,1.77-1.35,3.52-2.727,5.251-4.131-2.846-2.092-5.649-4.225-8.407-6.396-4.202,2.629-8.474,5.093-12.809,7.394.488,3.446.924,6.908,1.307,10.386,2.051-.745,4.098-1.524,6.14-2.338.379.694.759,1.387,1.138,2.081-4.504,2.466-9.074,4.763-13.702,6.892-.33-.719-.661-1.437-.991-2.156,1.569-.996,3.124-2.013,4.666-3.048-1.219-13.113-3.202-26.018-5.929-38.646.954-.548,1.904-1.105,2.85-1.671,9.714,8.603,20.069,16.674,31.025,24.14,1.518-.826,3.031-1.672,4.538-2.54ZM407.949,170.351c-4.908-3.937-9.674-8.001-14.294-12.182,1.283,6.108,2.396,12.281,3.335,18.509,3.702-1.988,7.357-4.097,10.959-6.327ZM293.578,176.903c-.029.791-.056,1.581-.084,2.371,1.664.271,3.334.519,5.011.745-.091,11.24-.181,22.482-.273,33.722-1.987.196-3.981.365-5.979.506-.028.791-.056,1.581-.084,2.371,6.066.215,12.139.179,18.203-.105-.037-.79-.074-1.58-.111-2.37-2.005-.118-4.005-.265-6-.439-.211-5.08-.315-10.272-.423-15.905,3.127-.06,6.254-.191,9.376-.396.417,2.053.842,4.105,1.275,6.155.918-.064,1.836-.134,2.752-.21-.404-4.867-.808-9.734-1.213-14.601-.853.071-1.705.136-2.559.195-.126,1.913-.259,3.824-.4,5.736-3.093.203-6.187.334-9.285.393-.096-5.112-.168-10.161-.171-15.127,4.31-.084,8.617-.319,12.913-.706.629,2.484,1.275,4.966,1.936,7.445,1.05-.102,2.098-.211,3.146-.331-.528-3.481-1.048-6.964-1.561-10.447-8.792.977-17.641,1.309-26.472.996ZM340.603,209.941c-1.069-5.014-5.437-28.157-6.284-33.134,1.615-.522,3.222-1.065,4.819-1.63-.169-.772-.338-1.545-.506-2.318-4.887,1.065-9.809,1.926-14.752,2.582.105.784.209,1.568.313,2.352,1.689-.01,3.381-.044,5.076-.102.906,5.042,4.67,28.294,5.36,33.296-1.932.525-3.874,1.024-5.824,1.496.105.784.209,1.568.313,2.352,6.027-.799,12.029-1.849,17.989-3.148-.169-.773-.338-1.546-.506-2.318-2,.219-3.999.41-5.996.572ZM284.45,213.28c1.627.3,3.258.583,4.894.846-.038.79-.077,1.58-.115,2.369-5.847-.285-11.685-.802-17.5-1.55.102-.784.202-1.569.304-2.352,2.151.041,4.3.049,6.444.026-.868-3.407-1.68-6.818-2.437-10.233-4.748-.549-9.481-1.263-14.19-2.141-1.735,3.006-3.523,5.992-5.362,8.957,2.025.685,4.061,1.34,6.11,1.965-.136.779-.271,1.558-.406,2.337-4.928-.854-9.833-1.878-14.707-3.068.188-.768.376-1.537.564-2.305,1.822.188,3.641.353,5.459.495,7.116-11.044,13.496-22.398,19.12-33.987,1.055.161,2.112.313,3.169.455,2.101,12.767,4.986,25.52,8.654,38.185ZM275.425,199.565c-1.305-6.132-2.432-12.272-3.381-18.413-2.747,5.584-5.668,11.115-8.76,16.582,4.032.732,8.082,1.342,12.142,1.831ZM212.979,180.834c.336-.716.673-1.432,1.009-2.147-4.769-2.244-9.471-4.686-14.093-7.325-.392.687-.783,1.374-1.175,2.061,1.808,1.216,3.634,2.402,5.477,3.559-1.613,3.217-5.78,11.216-5.78,11.217-2.526-.384-4.672-1.085-7.04-2.437-9.09-5.239-10.63-14.298-4.22-23.53,6.468-9.318,14.854-11.336,21.523-7.506,2.042,1.174,3.587,2.746,4.827,4.805-.718,2.111-1.425,4.227-2.121,6.347,1.046.545,2.095,1.08,3.148,1.605,1.209-2.6,2.421-5.199,3.636-7.796-1.894-3.139-4.452-5.479-8.391-7.753-9.457-5.473-20.761-3.003-27.946,6.558-7.155,9.487-4.91,22.348,6.933,29.256,4.85,2.807,9.556,3.747,14.572,3.847,0,0,4.456-8.904,6.116-12.095,1.174.457,2.348.901,3.525,1.334ZM236.567,187.24c3.054,1.762,4.568,4.372,4.665,9.299.047,3.105.131,6.216.256,9.33,1.546.613,3.1,1.21,4.662,1.788-.195.767-.39,1.533-.585,2.3-1.229.055-2.818-.11-4.719-.637-3.929-1.098-5.354-2.551-5.288-5.382.108-3.341.255-6.675.44-10.003.3-4.964-1.541-6.399-6.252-8.126-.945-.35-1.888-.706-2.828-1.07-1.939,5.017-3.755,9.727-5.435,14.386,1.809.927,3.631,1.828,5.466,2.704-.264.745-.528,1.491-.792,2.236-5.795-2.055-11.523-4.359-17.167-6.913.325-.72.651-1.441.977-2.161,1.94.644,3.883,1.26,5.829,1.845,2.057-4.612,11.139-26.346,13.032-31.107-1.494-.856-2.975-1.732-4.443-2.63.325-.72.651-1.441.977-2.161,4.58,2.072,9.226,3.943,13.926,5.614,7.735,2.73,11.406,7.608,9.706,13.997-1.212,4.485-5.636,7.726-12.427,6.688ZM243.805,179.041c1.442-4.786-.129-8.045-5.482-9.933-1.534-.545-3.062-1.112-4.583-1.7-1.932,4.72-3.756,9.407-5.858,14.84,1.485.575,2.976,1.131,4.472,1.67,6.099,2.173,10.076-.292,11.451-4.877Z"/>
</svg>