<?xml version="1.0" encoding="UTF-8"?>
<svg id="a" data-name="Layer 1" xmlns="http://www.w3.org/2000/svg" viewBox="0 0 600 337.5">
  <path d="M479.913,165.802v6.987h20.087v-6.987l-6.332-.873-18.454-43.246,9.066-1.295v-6.114h-32.533v6.114l9.044,1.292-18.682,43.468h-10.668v-43.45l6.55-1.31v-6.114h-24.017v6.114l8.515,1.31v26.638c0,2.62.437,8.515,1.092,13.1-2.183-3.93-4.803-8.952-6.332-11.135l-24.454-36.026h-19.869v6.114l8.734,1.31v43.231h-18.58l-8.276-16.376c6.332-1.747,12.664-6.769,12.664-16.376,0-13.1-8.734-17.904-20.742-17.904h-31.223v6.114l8.515,1.31v43.231h-10.48l-19.209-43.267,8.073-1.275v-6.114h-19.432l-21.616,50.655h-7.86v6.987l4.328.866-6.512,14.855h-12.445v-14.847h8.515v-6.987l-5.383-.828,17.61-43.277,7.205-1.31v-6.114h-24.236v6.114l7.86,1.092-12.882,33.188c-.873,2.402-1.965,5.677-2.838,8.297-.655-2.402-1.747-5.895-2.62-8.297l-12.882-33.188,7.642-1.092v-6.114h-25.109v6.114l7.205,1.31,17.551,43.231h-4.887v6.987l8.079.873v43.231l-6.55,1.31v6.114h26.419v-6.114l-10.699-1.31v-20.524h10.917l13.974,27.948h28.384v-6.114l-8.079-1.092,3.057-9.607h24.673l3.057,9.607-7.86,1.092v6.114h41.266v-6.114l-6.113-1.31v-15.939h10.262l12.882,23.362h39.956v-6.114l-8.297-1.31v-28.166c0-2.62-.437-8.515-.655-13.319,1.747,4.149,4.367,8.952,5.677,11.135l24.236,37.773h34.498v-6.114l-9.17-1.31,3.867-9.825h24.672l3.994,9.825-9.17,1.31v6.114h25.109v-6.114l-6.332-1.31-21.616-51.092h-8.079l-22.052,51.092h-6.332v-43.231h20.524v-6.987l-4.804-.655,3.868-9.607h25.109l3.992,9.607-4.367.655ZM464.847,182.178c.873-2.402,2.183-5.677,2.62-7.424.655,1.747,1.747,5.022,2.838,7.424l6.745,16.594h-18.734l6.53-16.594ZM333.406,122.353h13.537c7.642,0,11.354,3.493,11.354,9.825,0,4.804-3.057,8.734-10.262,8.734h-14.629v-18.559ZM283.843,131.523c.873-2.402,1.965-5.022,2.62-7.424.655,2.402,1.747,5.022,2.838,7.424l7.375,16.594h-19.558l6.724-16.594ZM275.764,216.021h-5.677l-12.445-23.362,9.155-19.869h11.805v-6.987l-8.297-.873,3.804-9.389h25.866l4.173,9.389h-8.297l-20.087,51.092ZM290.393,199.209l6.332-16.594c.873-2.402,1.965-5.677,2.62-7.205.437,1.528,1.528,4.803,2.62,7.424l6.332,16.376h-17.904ZM333.624,216.021h-9.607l-16.771-43.231h26.378v43.231ZM333.406,164.929v-16.157h12.009l7.621,16.157h-19.63ZM342.14,192.003v-19.214h12.009c7.205,0,10.262,3.712,10.262,10.044,0,5.022-2.62,9.17-9.607,9.17h-12.664ZM388.428,216.021h-18.122l-8.734-16.376c5.895-1.528,11.79-6.987,11.79-16.812,0-4.157-.787-7.462-2.215-10.044h17.281v43.231ZM422.271,201.61l-23.144-36.681h-8.734v-28.384c0-2.62-.218-8.515-.873-13.1,1.965,3.93,4.803,8.952,6.332,11.135l25.983,37.336,5.24.873v26.856c0,2.62.437,8.515,1.092,13.1-1.965-4.148-4.585-9.17-5.895-11.135ZM458.167,148.117l6.681-16.594c1.092-2.402,2.183-5.677,2.62-7.424.655,1.747,1.747,5.022,2.838,7.424l6.896,16.594h-19.035ZM198.69,189.602c-6.987-1.747-12.882-3.275-12.882-8.952,0-5.459,5.677-8.515,12.445-8.515,3.712,0,6.987.873,9.389,2.62-.655,1.092-1.092,2.402-1.092,3.93,0,3.275,2.402,5.677,5.895,5.677s5.895-3.057,5.895-7.205c0-5.254-4.643-9.475-11.022-11.601l-21.948-51.281h-19.651v6.114l8.411,1.294-18.455,43.247h-7.205l-13.537-24.017,6.987-14.629c.69-1.429,1.287-2.578,1.832-3.521.658,2.828,2.796,4.613,6.029,4.613,3.493,0,5.895-2.838,5.895-6.769,0-4.585-3.493-7.86-8.297-7.86-5.677,0-8.734,2.838-11.79,8.734l-8.297,15.721h-9.607v-15.502l6.55-1.31v-6.114h-22.271v6.114l6.55,1.31v43.45h-8.515l.873,16.812h6.55l.873-9.17h9.389v43.231l-10.262,1.31v6.114h29.258v-6.114l-10.262-1.31v-43.231h9.17l1.092,9.17h6.55l.357-9.17h10.996v-.007s.218.007.218.007v43.231l-8.515,1.31v6.114h23.799v-6.114l-6.769-1.31v-43.231l8.952-.873v-6.987h-7.642l3.804-9.389h25.328l3.601,8.531c-11.985.168-20.507,6.877-20.507,16.578,0,12.009,10.48,15.502,19.651,17.686,7.205,1.747,13.756,3.275,13.756,10.044,0,5.24-4.804,8.297-13.1,8.297-3.93,0-7.642-1.31-9.825-3.493.437-.873.655-1.965.655-2.838,0-3.493-2.402-5.895-5.677-5.895-3.493,0-5.895,2.838-5.895,6.987,0,8.297,11.354,13.319,20.961,13.319,13.974,0,21.834-6.113,21.834-16.812,0-13.319-11.135-15.939-20.524-18.341ZM117.686,165.147v-20.087h10.044l10.914,20.087h-20.957ZM171.442,148.117l6.724-16.594c.873-2.402,1.965-5.022,2.62-7.424.655,2.402,1.747,5.022,2.838,7.424l7.004,16.594h-19.187Z"/>
  <path d="M496.44,115.753c-.307.246-.245.798.307.798.307,0,.491-.246.491-.552,0-.43-.307-.736-.859-.736-.491,0-.859.246-1.289.921l-.982,1.657h-1.043v-1.718l.736-.123v-.552h-2.271v.552l.736.123v4.48l-.736.123v.552h2.271v-.552l-.736-.123v-2.025h1.166l1.841,2.7h1.227v-.552l-.737-.123-1.718-2.516.982-1.718c.184-.307.368-.491.614-.491v-.123ZM494.354,123.24c-2.884,0-4.91-2.025-4.91-4.91,0-2.823,2.025-4.848,4.91-4.848,2.823,0,4.848,2.025,4.848,4.848,0,2.884-2.025,4.91-4.848,4.91ZM494.354,123.977c3.314,0,5.646-2.332,5.646-5.646,0-3.253-2.332-5.585-5.646-5.585-3.375,0-5.708,2.332-5.708,5.585,0,3.314,2.332,5.646,5.708,5.646Z"/>
</svg>