<?xml version="1.0" encoding="UTF-8"?>
<svg id="a" data-name="Layer 1" xmlns="http://www.w3.org/2000/svg" viewBox="0 0 600 337.5">
  <path d="M254.75,109.75l-3.238-.191.336-12.311c9.678-.235,13.902,1.517,13.902,6.001,0,5.25-3,7-11,6.5ZM302.25,219.75c-5.25,0-8.5,3.75-8.5,9.5,0,5.5,2.75,8.5,7.5,8.5,5.25,0,8.5-3.75,8.5-9.5,0-5.5-2.75-8.5-7.5-8.5ZM253,233.25h-5.75v8.75h5.75c3.5,0,5.5-1.5,5.5-4.5,0-2.75-2-4.25-5.5-4.25ZM257.5,219.25c0-2.75-1.75-4-5.25-4h-5v8.25h5c3.5,0,5.25-1.5,5.25-4.25ZM400,168.75c0,22.161-.81,44.384-2.378,65.309-1.844-.199-3.718-.309-5.622-.309-8.6,0-16.629,2.082-23.633,5.77l-5.367-11.27,11.25-25.25v-.5h-18.5l-5.22,19.017-5.78-19.017h-19.5v.5l11.25,25.25-12.5,26.25v.5h19l6.235-20.849,5.407,16.072c-7.891,8.813-12.643,20.521-12.643,33.527,0,2.622.193,5.191.566,7.695-14.217,1.403-28.622,2.192-42.566,2.305-30.75-.25-63.75-3.75-92-10-5.25-32.75-8-74-8-115s2.75-82.25,8-115c28.25-6.25,61.25-9.75,92-10,30.75.25,63.75,3.75,92,10,5.25,32.75,8,74,8,115ZM290.5,107.75l-.75,24.75h20l-.75-24.75.75-25.25h-20l.75,25.25ZM309,167.75l.75-25.25h-19.5l.75,25.25-.75,24.75h19.5l-.75-24.75ZM232.75,107.75l-.75,24.75h20.25l-.267-8.005,6.767.255c14.5.75,24.5-9.25,24.5-24,0-14.25-11.25-18.25-23.5-18.25h-27.75l.75,25.25ZM232,192.5h17.75l-.75-19.75,29.5,20.5h2.25l.5-50.75h-17.5l1,19.75-30-21h-2.25l-.5,51.25ZM274.5,240.5c0-6.478-3.601-10.554-9.087-12.681,4.537-2.366,7.337-6.806,7.337-12.819,0-7.5-5.25-12.5-15.75-12.5h-25l.75,26.5-.75,26h25c10.25,0,17.5-5,17.5-14.5ZM325.25,227.75c0-16.75-8.25-26.25-23-26.25s-24,11-24,28.25c0,16.75,8.25,26.25,23,26.25s24-11,24-28.25ZM375.5,192l-20.75-25.25,19.25-24v-.25h-22.75l-13.348,20.128.598-20.128h-20.25l.75,25.25-.75,24.75h20.25l-.678-22.382,15.428,22.382h22.25v-.5ZM375.5,132l-20.75-25.25,19.25-24v-.25h-22.75l-13.348,20.128.598-20.128h-20.25l.75,25.25-.75,24.75h20.25l-.678-22.382,15.428,22.382h22.25v-.5Z"/>
</svg>