<?xml version="1.0" encoding="UTF-8"?>
<svg id="a" data-name="Layer 1" xmlns="http://www.w3.org/2000/svg" viewBox="0 0 600 337.5">
  <path d="M377.8,219.218h-17.664c-2.523,0-3.785-1.262-3.785-3.785v-93.366c0-2.523,1.893-3.785,3.785-3.785h15.771c13.879,0,18.925,5.678,18.925,16.402v19.556c0,5.678-1.262,8.832-5.047,12.617,4.416,2.523,6.308,6.308,6.308,13.248v22.08c0,11.355-5.047,17.033-18.295,17.033ZM374.645,129.637h-5.047v32.173h5.678c5.047,0,6.308-2.523,6.308-7.57v-18.295c0-4.416-1.893-6.308-6.939-6.308ZM374.645,173.166h-5.047v34.066h5.678c5.047,0,6.939-1.893,6.939-6.939v-19.556c0-5.047-1.893-7.57-7.57-7.57ZM308.406,199.662v-77.595c0-2.523,1.262-3.785,3.785-3.785h5.678c2.523,0,3.785,1.262,3.785,3.785v76.333c0,6.308,1.893,8.832,6.308,8.832s5.678-2.523,5.678-8.832v-76.333c0-2.523,1.262-3.785,3.785-3.785h5.678c2.523,0,3.785,1.262,3.785,3.785v77.595c0,14.51-6.308,20.818-18.925,20.818-13.248,0-19.556-6.308-19.556-20.818ZM262.354,179.474v-28.388c0-2.523,1.262-3.785,3.785-3.785h5.678c2.523,0,3.785,1.893,3.785,3.785v27.757c0,4.416,1.262,6.939,5.678,6.939,3.785,0,5.678-1.893,5.678-8.201v-55.515c0-2.523,1.262-3.785,3.785-3.785h5.678c2.523,0,3.785,1.262,3.785,3.785v56.146c0,14.51-6.308,20.818-18.925,20.818s-18.925-5.678-18.925-19.556ZM296.42,219.218h-51.73c-2.523,0-3.785-1.262-3.785-3.785v-93.366c0-2.523,1.262-3.785,3.785-3.785h5.678c2.523,0,3.785,1.262,3.785,3.785v83.272h42.267c2.523,0,3.785,1.262,3.785,3.785v6.308c0,2.523-1.262,3.785-3.785,3.785ZM191.699,199.662v-61.823c0-13.879,8.201-20.818,20.187-20.818,12.617,0,20.818,6.939,20.818,20.818v61.823c0,14.51-8.201,20.818-20.818,20.818-11.986,0-20.187-6.308-20.187-20.818ZM218.825,197.769v-58.669c0-6.939-1.893-10.094-6.939-10.094-4.416,0-6.308,3.154-6.308,10.094v58.669c0,6.939,1.893,9.463,6.308,9.463,5.047,0,6.939-2.523,6.939-9.463ZM170.25,219.218h-6.308c-1.893,0-4.416-1.893-4.416-3.785l-13.879-93.366c-.631-2.523,1.262-3.785,3.785-3.785h5.047c2.523,0,4.416,1.262,4.416,3.785l7.57,64.978h.631l7.57-64.978c0-2.523,1.893-3.785,4.416-3.785h5.678c2.523,0,3.785,1.262,3.154,3.785l-13.248,93.366c0,1.893-2.523,3.785-4.416,3.785ZM127.352,122.067v93.366c0,2.523,1.262,3.785,3.785,3.785h6.308c2.523,0,3.785-1.262,3.785-3.785v-93.366c0-2.523-1.262-3.785-3.785-3.785h-6.308c-2.523,0-3.785,1.262-3.785,3.785ZM99.595,202.185h-5.678v13.248c0,2.523-1.262,3.785-3.785,3.785h-5.678c-2.523,0-3.785-1.262-3.785-3.785v-93.366c0-2.523,1.262-3.785,3.785-3.785h15.14c13.879,0,20.187,5.678,20.187,18.295v46.052c0,11.986-6.308,19.556-20.187,19.556ZM98.964,129.637h-5.047v59.931h5.047c5.047,0,6.939-2.523,6.939-7.57v-44.79c0-5.678-1.893-7.57-6.939-7.57Z"/>
  <path d="M435.207,166.227c-10.094-8.832-10.724-20.818-2.523-29.019,8.201-8.201,20.187-7.57,29.019,2.523l-26.496,26.496ZM471.796,220.48c1.893,0,3.154-.631,4.416-1.893l42.267-42.267c15.14-15.14,16.402-35.328,2.523-49.206s-34.066-12.617-49.206,2.523c-15.14-15.14-35.328-16.402-49.206-2.523s-12.617,34.066,2.523,49.206l42.267,42.267c1.262,1.262,2.523,1.893,4.416,1.893Z"/>
</svg>